<svg width="980" height="720" viewBox="0 0 980 720" fill="none" xmlns="http://www.w3.org/2000/svg" role="img" aria-labelledby="title desc">
  <title id="title">AIRegReady governance resource workspace</title>
  <desc id="desc">A product workspace showing an AI governance document kit stack, risk scorecard, vendor review checklist, regulation tracker, training module, and jurisdiction guide cards.</desc>
  <rect width="980" height="720" rx="28" fill="#F6F9FC"/>
  <rect x="26" y="26" width="928" height="668" rx="24" fill="#FFFFFF" stroke="#C9D7E6"/>
  <rect x="26" y="26" width="928" height="70" rx="24" fill="#0B1B2F"/>
  <path d="M26 70h928v26H26z" fill="#0B1B2F"/>
  <rect x="58" y="50" width="26" height="26" rx="7" fill="#2CA6A4"/>
  <path d="M64 63.5l4.5 4.2L78 57.5" stroke="#FFFFFF" stroke-width="2.4" stroke-linecap="round" stroke-linejoin="round"/>
  <text x="98" y="66" fill="#F8FAFC" font-family="Inter, Arial, sans-serif" font-size="18" font-weight="800">AIRegReady resource workspace</text>
  <rect x="694" y="51" width="78" height="18" rx="9" fill="#193658"/>
  <text x="711" y="64" fill="#B8D4F0" font-family="Inter, Arial, sans-serif" font-size="10" font-weight="700">KITS</text>
  <rect x="786" y="51" width="118" height="18" rx="9" fill="#2CA6A4"/>
  <text x="807" y="64" fill="#FFFFFF" font-family="Inter, Arial, sans-serif" font-size="10" font-weight="800">READY TO ADAPT</text>

  <rect x="58" y="126" width="210" height="516" rx="18" fill="#F2F6FB" stroke="#D6E2EF"/>
  <text x="82" y="160" fill="#0B1B2F" font-family="Inter, Arial, sans-serif" font-size="15" font-weight="800">Document kit stack</text>
  <text x="82" y="180" fill="#61758D" font-family="Inter, Arial, sans-serif" font-size="11" font-weight="600">Editable governance resources</text>

  <g font-family="Inter, Arial, sans-serif">
    <rect x="82" y="214" width="162" height="66" rx="12" fill="#FFFFFF" stroke="#C9D7E6"/>
    <text x="100" y="240" fill="#0B1B2F" font-size="12" font-weight="800">AI use inventory</text>
    <rect x="100" y="252" width="68" height="14" rx="7" fill="#EAF4FF"/>
    <text x="112" y="263" fill="#2368A0" font-size="9" font-weight="800">Draft</text>

    <rect x="92" y="296" width="162" height="66" rx="12" fill="#FFFFFF" stroke="#C9D7E6"/>
    <text x="110" y="322" fill="#0B1B2F" font-size="12" font-weight="800">Acceptable use policy</text>
    <rect x="110" y="334" width="86" height="14" rx="7" fill="#E6F7F3"/>
    <text x="122" y="345" fill="#137A72" font-size="9" font-weight="800">Review</text>

    <rect x="76" y="378" width="162" height="66" rx="12" fill="#FFFFFF" stroke="#C9D7E6"/>
    <text x="94" y="404" fill="#0B1B2F" font-size="12" font-weight="800">Incident worksheet</text>
    <rect x="94" y="416" width="104" height="14" rx="7" fill="#FFF1CC"/>
    <text x="106" y="427" fill="#8A5A00" font-size="9" font-weight="800">Update needed</text>

    <rect x="88" y="460" width="162" height="66" rx="12" fill="#FFFFFF" stroke="#C9D7E6"/>
    <text x="106" y="486" fill="#0B1B2F" font-size="12" font-weight="800">Training outline</text>
    <rect x="106" y="498" width="106" height="14" rx="7" fill="#E6F7F3"/>
    <text x="118" y="509" fill="#137A72" font-size="9" font-weight="800">Ready to adapt</text>
  </g>

  <rect x="300" y="126" width="342" height="224" rx="18" fill="#FFFFFF" stroke="#C9D7E6"/>
  <text x="324" y="160" fill="#0B1B2F" font-family="Inter, Arial, sans-serif" font-size="16" font-weight="800">Risk scorecard</text>
  <text x="324" y="181" fill="#61758D" font-family="Inter, Arial, sans-serif" font-size="11" font-weight="600">Use-case readiness view</text>
  <circle cx="398" cy="252" r="46" stroke="#E2EAF3" stroke-width="13"/>
  <path d="M398 206a46 46 0 0 1 41.2 66.5" stroke="#2CA6A4" stroke-width="13" stroke-linecap="round"/>
  <text x="382" y="260" fill="#0B1B2F" font-family="Inter, Arial, sans-serif" font-size="24" font-weight="900">68</text>
  <g font-family="Inter, Arial, sans-serif" font-size="11" font-weight="700">
    <text x="474" y="224" fill="#52677F">Policy readiness</text>
    <rect x="474" y="235" width="126" height="8" rx="4" fill="#E2EAF3"/>
    <rect x="474" y="235" width="92" height="8" rx="4" fill="#2F80C2"/>
    <text x="474" y="268" fill="#52677F">Vendor controls</text>
    <rect x="474" y="279" width="126" height="8" rx="4" fill="#E2EAF3"/>
    <rect x="474" y="279" width="68" height="8" rx="4" fill="#D4972A"/>
    <text x="474" y="312" fill="#52677F">Incident planning</text>
    <rect x="474" y="323" width="126" height="8" rx="4" fill="#E2EAF3"/>
    <rect x="474" y="323" width="48" height="8" rx="4" fill="#8AA0B7"/>
  </g>

  <rect x="666" y="126" width="256" height="224" rx="18" fill="#FFFFFF" stroke="#C9D7E6"/>
  <text x="690" y="160" fill="#0B1B2F" font-family="Inter, Arial, sans-serif" font-size="16" font-weight="800">Vendor AI review checklist</text>
  <g font-family="Inter, Arial, sans-serif" font-size="11" font-weight="700">
    <rect x="690" y="190" width="18" height="18" rx="5" fill="#2CA6A4"/>
    <path d="M695 199l3 3 6-7" stroke="#FFFFFF" stroke-width="2" stroke-linecap="round" stroke-linejoin="round"/>
    <text x="718" y="203" fill="#314963">Training data terms checked</text>
    <rect x="690" y="224" width="18" height="18" rx="5" fill="#2CA6A4"/>
    <path d="M695 233l3 3 6-7" stroke="#FFFFFF" stroke-width="2" stroke-linecap="round" stroke-linejoin="round"/>
    <text x="718" y="237" fill="#314963">Security review recorded</text>
    <rect x="690" y="258" width="18" height="18" rx="5" fill="#FFF1CC" stroke="#D4972A"/>
    <text x="718" y="271" fill="#314963">Data retention needs review</text>
    <rect x="690" y="292" width="18" height="18" rx="5" fill="#FFFFFF" stroke="#AFC0D2"/>
    <text x="718" y="305" fill="#314963">Owner assigned</text>
  </g>

  <rect x="300" y="378" width="304" height="166" rx="18" fill="#0B1B2F"/>
  <text x="324" y="412" fill="#FFFFFF" font-family="Inter, Arial, sans-serif" font-size="16" font-weight="800">Regulation tracker</text>
  <g font-family="Inter, Arial, sans-serif">
    <rect x="324" y="436" width="118" height="36" rx="10" fill="#193658"/>
    <text x="340" y="458" fill="#CFE0F2" font-size="11" font-weight="800">EU AI Act</text>
    <rect x="458" y="436" width="122" height="36" rx="10" fill="#193658"/>
    <text x="474" y="458" fill="#CFE0F2" font-size="11" font-weight="800">Colorado AI Act</text>
    <rect x="324" y="488" width="96" height="18" rx="9" fill="#2CA6A4"/>
    <text x="340" y="501" fill="#FFFFFF" font-size="9" font-weight="900">Tracked topic</text>
    <rect x="434" y="488" width="120" height="18" rx="9" fill="#D4972A"/>
    <text x="450" y="501" fill="#FFFFFF" font-size="9" font-weight="900">Update guide</text>
  </g>

  <rect x="630" y="378" width="292" height="166" rx="18" fill="#FFFFFF" stroke="#C9D7E6"/>
  <text x="654" y="412" fill="#0B1B2F" font-family="Inter, Arial, sans-serif" font-size="16" font-weight="800">Training module card</text>
  <rect x="654" y="438" width="88" height="12" rx="6" fill="#EAF4FF"/>
  <rect x="654" y="462" width="192" height="12" rx="6" fill="#E2EAF3"/>
  <rect x="654" y="486" width="152" height="12" rx="6" fill="#E2EAF3"/>
  <rect x="654" y="512" width="134" height="18" rx="9" fill="#E6F7F3"/>
  <text x="672" y="525" fill="#137A72" font-family="Inter, Arial, sans-serif" font-size="9" font-weight="900">Staff-ready</text>

  <rect x="300" y="570" width="622" height="72" rx="18" fill="#F2F6FB" stroke="#D6E2EF"/>
  <text x="324" y="602" fill="#0B1B2F" font-family="Inter, Arial, sans-serif" font-size="15" font-weight="800">Jurisdiction guide cards</text>
  <g font-family="Inter, Arial, sans-serif" font-size="10" font-weight="900">
    <rect x="510" y="588" width="82" height="24" rx="12" fill="#FFFFFF" stroke="#C9D7E6"/>
    <text x="532" y="604" fill="#2368A0">EU</text>
    <rect x="604" y="588" width="102" height="24" rx="12" fill="#FFFFFF" stroke="#C9D7E6"/>
    <text x="626" y="604" fill="#2368A0">Colorado</text>
    <rect x="718" y="588" width="82" height="24" rx="12" fill="#FFFFFF" stroke="#C9D7E6"/>
    <text x="738" y="604" fill="#2368A0">NIST</text>
    <rect x="812" y="588" width="84" height="24" rx="12" fill="#FFFFFF" stroke="#C9D7E6"/>
    <text x="832" y="604" fill="#2368A0">Schools</text>
  </g>
</svg>
