<svg width="860" height="620" viewBox="0 0 860 620" fill="none" xmlns="http://www.w3.org/2000/svg" role="img" aria-labelledby="title desc">
  <title id="title">AIRegReady product kit dashboard preview</title>
  <desc id="desc">A polished compliance dashboard with policy documents, risk registers, checklists, and regulatory tracking cards.</desc>
  <rect width="860" height="620" rx="36" fill="#EEF5FF"/>
  <rect x="28" y="28" width="804" height="564" rx="30" fill="url(#paint0_linear)"/>
  <circle cx="716" cy="98" r="96" fill="#BFE3FF" opacity=".45"/>
  <circle cx="145" cy="500" r="116" fill="#D6F3EA" opacity=".55"/>
  <rect x="76" y="74" width="708" height="472" rx="28" fill="#FFFFFF" stroke="#C9D9EC"/>
  <rect x="76" y="74" width="708" height="76" rx="28" fill="#0F2742"/>
  <path d="M76 122h708v28H76z" fill="#0F2742"/>
  <rect x="112" y="102" width="34" height="34" rx="8" fill="#2CA6A4"/>
  <path d="M120 119.5l6.3 6 13.2-14" stroke="#F8FAFC" stroke-width="3" stroke-linecap="round" stroke-linejoin="round"/>
  <text x="160" y="124" fill="#F8FAFC" font-family="Inter, Arial, sans-serif" font-size="20" font-weight="700">AIRegReady</text>
  <text x="160" y="141" fill="#9FB6D1" font-family="Inter, Arial, sans-serif" font-size="11" font-weight="600" letter-spacing="1.2">GOVERNANCE KIT WORKSPACE</text>
  <rect x="598" y="101" width="62" height="16" rx="8" fill="#294C70"/>
  <rect x="674" y="101" width="74" height="16" rx="8" fill="#2CA6A4"/>

  <rect x="112" y="188" width="252" height="304" rx="20" fill="#F8FBFF" stroke="#D7E4F2"/>
  <text x="136" y="224" fill="#0F2742" font-family="Inter, Arial, sans-serif" font-size="18" font-weight="800">Starter Kit</text>
  <text x="136" y="247" fill="#52677F" font-family="Inter, Arial, sans-serif" font-size="13" font-weight="500">Policy, inventory, risk tools</text>
  <rect x="136" y="276" width="176" height="14" rx="7" fill="#CFE7FF"/>
  <rect x="136" y="304" width="202" height="14" rx="7" fill="#DCECFB"/>
  <rect x="136" y="332" width="138" height="14" rx="7" fill="#DCECFB"/>
  <rect x="136" y="374" width="188" height="48" rx="12" fill="#FFFFFF" stroke="#D7E4F2"/>
  <rect x="152" y="390" width="16" height="16" rx="4" fill="#2CA6A4"/>
  <path d="M156 398l3 3 6-7" stroke="#fff" stroke-width="2" stroke-linecap="round" stroke-linejoin="round"/>
  <text x="180" y="402" fill="#0F2742" font-family="Inter, Arial, sans-serif" font-size="13" font-weight="700">Acceptable use policy</text>
  <rect x="136" y="434" width="188" height="34" rx="12" fill="#EFF6FF"/>
  <text x="154" y="456" fill="#1D4F8C" font-family="Inter, Arial, sans-serif" font-size="13" font-weight="700">Preview contents</text>

  <rect x="392" y="188" width="178" height="132" rx="20" fill="#0F2742"/>
  <text x="416" y="224" fill="#F8FAFC" font-family="Inter, Arial, sans-serif" font-size="16" font-weight="800">Risk Scorecard</text>
  <circle cx="482" cy="271" r="36" stroke="#284D71" stroke-width="12"/>
  <path d="M482 235a36 36 0 0 1 31.5 53.5" stroke="#2CA6A4" stroke-width="12" stroke-linecap="round"/>
  <text x="470" y="278" fill="#F8FAFC" font-family="Inter, Arial, sans-serif" font-size="20" font-weight="800">72</text>

  <rect x="592" y="188" width="156" height="132" rx="20" fill="#F8FBFF" stroke="#D7E4F2"/>
  <text x="616" y="222" fill="#0F2742" font-family="Inter, Arial, sans-serif" font-size="15" font-weight="800">Update Tracker</text>
  <rect x="616" y="246" width="82" height="10" rx="5" fill="#CFE7FF"/>
  <rect x="616" y="272" width="108" height="10" rx="5" fill="#DCECFB"/>
  <rect x="616" y="294" width="64" height="10" rx="5" fill="#2CA6A4"/>

  <rect x="392" y="346" width="356" height="146" rx="20" fill="#F8FBFF" stroke="#D7E4F2"/>
  <text x="416" y="382" fill="#0F2742" font-family="Inter, Arial, sans-serif" font-size="16" font-weight="800">Regulatory Watchlist</text>
  <g font-family="Inter, Arial, sans-serif" font-size="12" font-weight="700">
    <rect x="416" y="408" width="138" height="38" rx="12" fill="#FFFFFF" stroke="#D7E4F2"/>
    <text x="434" y="432" fill="#1D4F8C">EU AI Act</text>
    <rect x="570" y="408" width="142" height="38" rx="12" fill="#FFFFFF" stroke="#D7E4F2"/>
    <text x="588" y="432" fill="#1D4F8C">Colorado AI Act</text>
    <rect x="416" y="456" width="138" height="18" rx="9" fill="#D6F3EA"/>
    <rect x="570" y="456" width="96" height="18" rx="9" fill="#FFE8B5"/>
  </g>
  <path d="M398 162l-28 28M746 342l28-28M106 520l28-28" stroke="#88A9C9" stroke-width="2" stroke-linecap="round"/>
  <defs>
    <linearGradient id="paint0_linear" x1="104" y1="40" x2="746" y2="606" gradientUnits="userSpaceOnUse">
      <stop stop-color="#F6FAFF"/>
      <stop offset=".48" stop-color="#E8F2FE"/>
      <stop offset="1" stop-color="#E9F7F3"/>
    </linearGradient>
  </defs>
</svg>
